<svg width="37" height="35" viewBox="0 0 37 35" fill="none" xmlns="http://www.w3.org/2000/svg">
<ellipse cx="18.3789" cy="17.4857" rx="18" ry="17.4857" fill="#AE58DB"/>
<path d="M4.36035 20.5195C4.36035 22.6289 5.91602 24.0527 8.20117 24.0527C10.6709 24.0527 12.1475 22.5938 12.1475 20.0801V11.0889H10.1787V20.0713C10.1787 21.5215 9.47559 22.2949 8.18359 22.2949C7.08496 22.2949 6.32031 21.5742 6.29395 20.5195H4.36035ZM17.5352 23.7715H19.46V11.0889H17.5176L14.1777 13.4619V15.3252L17.4912 13.04H17.5352V23.7715ZM28.583 23.7715H30.4727V21.249H32.2217V19.5967H30.4727V11.0889H27.625C24.7773 15.2197 23.3271 17.4961 22.2373 19.5352V21.249H28.583V23.7715ZM24.0654 19.5703C25.0762 17.7686 26.3682 15.7646 28.5654 12.6182H28.6006V19.623H24.0654V19.5703Z" fill="white"/>
</svg>
