<svg width="37" height="35" viewBox="0 0 37 35" fill="none" xmlns="http://www.w3.org/2000/svg">
<ellipse cx="18.3789" cy="17.4857" rx="18" ry="17.4857" fill="#3DC55E"/>
<path d="M8.94824 23.7715H10.873V11.0889H8.93066L5.59082 13.4619V15.3252L8.9043 13.04H8.94824V23.7715ZM18.502 24.0088C21.2441 24.0088 23.1602 22.207 23.1602 19.6143C23.1602 17.1885 21.4111 15.4307 18.9854 15.4307C17.7373 15.4307 16.6826 15.9141 16.1113 16.7666H16.0674L16.4541 12.75H22.4219V11.0889H14.8633L14.2393 18.4014H15.9619C16.498 17.4697 17.4033 16.9863 18.5371 16.9863C20.1191 16.9863 21.2354 18.1025 21.2354 19.667C21.2354 21.249 20.1279 22.3652 18.5195 22.3652C17.1045 22.3652 16.0322 21.5039 15.8916 20.2471H14.0107C14.125 22.4619 15.9707 24.0088 18.502 24.0088ZM27.9678 23.7715H29.8926V11.0889H27.9502L24.6104 13.4619V15.3252L27.9238 13.04H27.9678V23.7715Z" fill="white"/>
</svg>
