<svg width="37" height="35" viewBox="0 0 37 35" fill="none" xmlns="http://www.w3.org/2000/svg">
<ellipse cx="18.3789" cy="17.4857" rx="18" ry="17.4857" fill="#FD9426"/>
<path d="M14.1865 24.0176C16.8672 24.0176 18.8184 22.1719 18.8184 19.623C18.8184 17.2236 17.0693 15.4482 14.6436 15.4482C12.9209 15.4482 11.6377 16.3447 11.1279 17.4961H11.0928C11.1191 14.3408 12.2266 12.4951 14.2393 12.4951C15.4521 12.4951 16.3311 13.1104 16.6738 14.165H18.6514C18.2734 12.1699 16.5244 10.8428 14.2568 10.8428C11.084 10.8428 9.20312 13.3564 9.20312 17.6016C9.20312 22.1982 11.6025 24.0176 14.1865 24.0176ZM14.1602 22.3564C12.6572 22.3564 11.4795 21.1611 11.4795 19.6494C11.4795 18.1465 12.6309 17.0479 14.1865 17.0479C15.7422 17.0479 16.8584 18.1553 16.8584 19.6934C16.8584 21.1787 15.6631 22.3564 14.1602 22.3564ZM23.9072 20.3701L25.9463 23.7715H28.0381L25.041 19.0957L28.0732 14.5254H25.9814L23.9863 17.874H23.9512L21.9297 14.5254H19.8027L22.8086 19.1572L19.7588 23.7715H21.8154L23.8633 20.3701H23.9072Z" fill="white"/>
</svg>
