<svg width="37" height="35" viewBox="0 0 37 35" fill="none" xmlns="http://www.w3.org/2000/svg">
<ellipse cx="18.3789" cy="17.4857" rx="18" ry="17.4857" fill="#8A9BA8"/>
<path d="M8.42969 14.8242H10.293C10.293 13.4707 11.3916 12.4775 12.8418 12.4775C14.1865 12.4775 15.0654 13.3916 15.0654 14.5605C15.0654 15.5537 14.6787 16.2041 13.0088 17.9092L8.53516 22.418V23.7715H17.21V22.1104H11.1719V22.0664L14.0547 19.1748C16.3223 16.9072 17.0078 15.8965 17.0078 14.4375C17.0078 12.4424 15.3291 10.8516 12.8418 10.8516C10.293 10.8516 8.42969 12.5215 8.42969 14.8242ZM23.5996 24.0088C26.6494 24.0088 28.4424 21.4512 28.4424 17.4082C28.4424 13.3916 26.6318 10.8516 23.5996 10.8516C20.5674 10.8516 18.7393 13.4004 18.7393 17.417C18.7393 21.46 20.541 24.0088 23.5996 24.0088ZM23.5996 22.3564C21.7627 22.3564 20.7344 20.4844 20.7344 17.417C20.7344 14.3936 21.7891 12.5039 23.5996 12.5039C25.4102 12.5039 26.4561 14.3848 26.4561 17.417C26.4561 20.4932 25.4277 22.3564 23.5996 22.3564Z" fill="white"/>
</svg>
