<svg width="37" height="35" viewBox="0 0 37 35" fill="none" xmlns="http://www.w3.org/2000/svg">
<ellipse cx="18.3789" cy="17.4857" rx="18" ry="17.4857" fill="#60C9F8"/>
<path d="M7.84961 23.7715H9.77441V11.0889H7.83203L4.49219 13.4619V15.3252L7.80566 13.04H7.84961V23.7715ZM12.7627 14.8242H14.626C14.626 13.4707 15.7246 12.4775 17.1748 12.4775C18.5195 12.4775 19.3984 13.3916 19.3984 14.5605C19.3984 15.5537 19.0117 16.2041 17.3418 17.9092L12.8682 22.418V23.7715H21.543V22.1104H15.5049V22.0664L18.3877 19.1748C20.6553 16.9072 21.3408 15.8965 21.3408 14.4375C21.3408 12.4424 19.6621 10.8516 17.1748 10.8516C14.626 10.8516 12.7627 12.5215 12.7627 14.8242ZM28.9521 23.7715H30.8418V21.249H32.5908V19.5967H30.8418V11.0889H27.9941C25.1465 15.2197 23.6963 17.4961 22.6064 19.5352V21.249H28.9521V23.7715ZM24.4346 19.5703C25.4453 17.7686 26.7373 15.7646 28.9346 12.6182H28.9697V19.623H24.4346V19.5703Z" fill="white"/>
</svg>
