<svg width="37" height="35" viewBox="0 0 37 35" fill="none" xmlns="http://www.w3.org/2000/svg">
<ellipse cx="18.3789" cy="17.4857" rx="18" ry="17.4857" fill="#B07B46"/>
<path d="M12.9824 24.0176C15.6631 24.0176 17.6143 22.1719 17.6143 19.623C17.6143 17.2236 15.8652 15.4482 13.4395 15.4482C11.7168 15.4482 10.4336 16.3447 9.92383 17.4961H9.88867C9.91504 14.3408 11.0225 12.4951 13.0352 12.4951C14.248 12.4951 15.127 13.1104 15.4697 14.165H17.4473C17.0693 12.1699 15.3203 10.8428 13.0527 10.8428C9.87988 10.8428 7.99902 13.3564 7.99902 17.6016C7.99902 22.1982 10.3984 24.0176 12.9824 24.0176ZM12.9561 22.3564C11.4531 22.3564 10.2754 21.1611 10.2754 19.6494C10.2754 18.1465 11.4268 17.0479 12.9824 17.0479C14.5381 17.0479 15.6543 18.1553 15.6543 19.6934C15.6543 21.1787 14.459 22.3564 12.9561 22.3564ZM23.9248 24.0088C26.9746 24.0088 28.7676 21.4512 28.7676 17.4082C28.7676 13.3916 26.957 10.8516 23.9248 10.8516C20.8926 10.8516 19.0645 13.4004 19.0645 17.417C19.0645 21.46 20.8662 24.0088 23.9248 24.0088ZM23.9248 22.3564C22.0879 22.3564 21.0596 20.4844 21.0596 17.417C21.0596 14.3936 22.1143 12.5039 23.9248 12.5039C25.7354 12.5039 26.7812 14.3848 26.7812 17.417C26.7812 20.4932 25.7529 22.3564 23.9248 22.3564Z" fill="white"/>
</svg>
