<svg width="37" height="35" viewBox="0 0 37 35" fill="none" xmlns="http://www.w3.org/2000/svg">
<ellipse cx="18.3789" cy="17.4857" rx="18" ry="17.4857" fill="#5F61E2"/>
<path d="M8.05176 23.7715H9.97656V11.0889H8.03418L4.69434 13.4619V15.3252L8.00781 13.04H8.05176V23.7715ZM17.6055 24.0088C20.3477 24.0088 22.2637 22.207 22.2637 19.6143C22.2637 17.1885 20.5146 15.4307 18.0889 15.4307C16.8408 15.4307 15.7861 15.9141 15.2148 16.7666H15.1709L15.5576 12.75H21.5254V11.0889H13.9668L13.3428 18.4014H15.0654C15.6016 17.4697 16.5068 16.9863 17.6406 16.9863C19.2227 16.9863 20.3389 18.1025 20.3389 19.667C20.3389 21.249 19.2314 22.3652 17.623 22.3652C16.208 22.3652 15.1357 21.5039 14.9951 20.2471H13.1143C13.2285 22.4619 15.0742 24.0088 17.6055 24.0088ZM24.5664 23.7715H26.6318L32.1426 12.7939V11.0889H23.5117V12.75H30.2002V12.7939L24.5664 23.7715Z" fill="white"/>
</svg>
